<?xml version="1.0" standalone="no"?>
<!DOCTYPE svg PUBLIC "-//W3C//DTD SVG 20010904//EN"
 "http://www.w3.org/TR/2001/REC-SVG-20010904/DTD/svg10.dtd">
<svg version="1.0" xmlns="http://www.w3.org/2000/svg"
 width="162.000000pt" height="185.000000pt" viewBox="0 0 162.000000 185.000000"
 preserveAspectRatio="xMidYMid meet">
<metadata>
Created by potrace 1.14, written by Peter Selinger 2001-2017
</metadata>
<g transform="translate(0.000000,185.000000) scale(0.100000,-0.100000)"
fill="#000000" stroke="none">
<path d="M242 1729 c3 -84 8 -101 38 -158 85 -159 281 -288 541 -355 50 -13
98 -31 106 -39 12 -11 15 -32 12 -79 -9 -176 12 -262 81 -341 22 -25 61 -55
86 -67 40 -20 57 -22 142 -18 130 7 145 15 160 86 18 85 44 122 87 123 19 1
40 2 47 3 7 1 18 -10 24 -23 12 -23 12 -23 23 -3 27 51 -3 115 -60 127 -17 4
-52 16 -77 27 -39 18 -58 20 -125 14 -78 -7 -141 -25 -88 -26 21 0 18 -4 -23
-31 -42 -28 -116 -119 -116 -143 0 -5 17 15 38 45 48 70 120 113 213 130 54
10 72 10 82 0 15 -15 -8 -32 -31 -23 -10 3 -13 1 -8 -6 9 -15 41 -15 67 -2 15
8 30 6 67 -11 l47 -22 -30 -7 c-16 -4 -24 -8 -16 -9 26 -2 1 -15 -41 -20 -44
-6 -52 -15 -136 -135 -22 -32 -47 -54 -78 -68 -45 -19 -47 -19 -102 -1 -44 14
-60 25 -72 49 -9 17 -20 29 -26 27 -6 -2 -23 24 -39 58 -30 68 -31 100 -4 267
12 78 12 86 -6 120 -25 46 -61 70 -167 112 -112 44 -231 104 -303 153 -92 63
-216 188 -259 262 -22 36 -43 68 -49 72 -6 4 -8 -29 -5 -88z"/>
<path d="M185 1404 c61 -146 166 -236 325 -277 68 -18 292 -32 355 -23 34 6
45 12 45 25 0 32 -34 49 -150 75 -205 46 -389 117 -538 206 l-53 32 16 -38z"/>
<path d="M230 1134 c0 -5 16 -30 35 -56 90 -123 214 -146 473 -87 172 39 163
36 156 54 -5 12 -29 15 -145 15 -193 0 -379 28 -505 77 -8 3 -14 1 -14 -3z"/>
<path d="M760 965 c-41 -13 -118 -31 -171 -41 -88 -15 -95 -19 -92 -38 4 -19
10 -21 58 -18 46 3 54 1 60 -17 6 -20 6 -20 56 -2 27 11 82 39 122 64 40 25
82 48 95 52 12 3 20 11 17 16 -10 15 -64 9 -145 -16z"/>
<path d="M805 894 c-38 -25 -96 -58 -127 -75 -32 -16 -59 -33 -59 -37 -4 -20
-6 -82 -2 -82 2 0 20 7 40 15 54 23 124 80 193 157 74 82 59 89 -45 22z"/>
<path d="M820 805 c-41 -47 -95 -101 -119 -120 -41 -33 -49 -35 -118 -35 l-73
0 0 -226 0 -225 53 3 52 3 3 87 3 88 54 0 54 0 61 -90 61 -90 59 0 c35 0 60 4
60 10 0 6 -25 47 -56 91 -31 44 -55 81 -53 82 2 1 17 9 33 17 41 21 67 61 67
101 0 19 5 61 11 94 12 69 2 181 -13 135 -4 -14 -10 -46 -14 -72 -6 -49 -15
-58 -33 -35 -7 8 -6 30 3 72 33 149 22 191 -20 79 -40 -108 -52 -124 -86 -124
l-31 0 27 32 c38 45 118 208 102 208 -7 0 -46 -38 -87 -85z m-44 -250 c-4 -12
1 -15 22 -13 22 3 27 -1 30 -23 5 -44 -27 -62 -123 -67 l-85 -5 0 62 0 61 81
0 c69 0 80 -2 75 -15z"/>
<path d="M999 610 c-2 -58 -3 -174 -1 -258 l3 -153 52 3 52 3 3 78 3 77 110 0
c120 0 158 10 198 54 36 38 41 122 11 171 -36 59 -59 65 -239 65 l-161 0 -14
33 c-13 30 -14 27 -17 -73z m303 -57 c10 -9 18 -30 18 -49 0 -50 -28 -64 -127
-64 l-83 0 0 65 0 65 87 0 c66 0 91 -4 105 -17z"/>
<path d="M155 636 c-40 -18 -83 -62 -102 -106 -22 -50 -22 -145 0 -202 38 -99
114 -132 297 -126 l105 3 0 40 0 40 -105 2 c-134 4 -147 7 -170 46 -35 57 -34
57 130 57 l150 0 0 40 0 40 -150 0 c-170 0 -178 4 -116 66 l34 34 111 0 111 0
0 40 0 40 -132 0 c-88 -1 -143 -5 -163 -14z"/>
<path d="M465 146 c-14 -10 -20 -26 -20 -56 0 -30 6 -46 20 -56 47 -35 115 -2
115 56 0 58 -68 91 -115 56z"/>
</g>
</svg>
